<svg height="512pt" viewBox="0 0 512 512" width="512pt" xmlns="http://www.w3.org/2000/svg"><path d="m8.535156 179.199219h494.929688v324.265625h-494.929688zm0 0" fill="#28384c"/><path d="m142.941406 332.800781h-81.082031c-5.890625 0-10.660156-4.769531-10.660156-10.660156v-81.074219c0-5.894531 4.769531-10.667968 10.660156-10.667968h81.074219c5.894531 0 10.667968 4.773437 10.667968 10.660156v81.074218c0 5.898438-4.773437 10.667969-10.660156 10.667969zm0 0" fill="#204872"/><path d="m288.007812 332.800781h-81.074218c-5.898438 0-10.667969-4.769531-10.667969-10.660156v-81.074219c0-5.894531 4.769531-10.667968 10.660156-10.667968h81.074219c5.898438 0 10.667969 4.773437 10.667969 10.660156v81.074218c0 5.898438-4.769531 10.667969-10.660157 10.667969zm0 0" fill="#204872"/><path d="m142.941406 460.800781h-81.082031c-5.890625 0-10.660156-4.769531-10.660156-10.660156v-72.539063c0-5.898437 4.769531-10.667968 10.660156-10.667968h81.074219c5.894531 0 10.667968 4.769531 10.667968 10.65625v72.542968c0 5.898438-4.773437 10.667969-10.660156 10.667969zm0 0" fill="#204872"/><path d="m288.007812 460.800781h-81.074218c-5.898438 0-10.667969-4.769531-10.667969-10.660156v-72.539063c0-5.898437 4.769531-10.667968 10.660156-10.667968h81.074219c5.898438 0 10.667969 4.769531 10.667969 10.65625v72.542968c0 5.898438-4.769531 10.667969-10.660157 10.667969zm0 0" fill="#204872"/><path d="m450.140625 460.800781h-98.148437c-5.890626 0-10.660157-4.769531-10.660157-10.660156v-209.082031c0-5.886719 4.769531-10.660156 10.660157-10.660156h98.140624c5.898438 0 10.667969 4.773437 10.667969 10.660156v209.074218c0 5.898438-4.769531 10.667969-10.660156 10.667969zm0 0" fill="#25ae88"/><path d="m8.535156 8.535156h494.929688v179.199219h-494.929688zm0 0" fill="#e4c05c"/><g fill="#4d007e"><path d="m503.464844 196.265625h-494.929688c-4.710937 0-8.535156-3.820313-8.535156-8.53125v-179.199219c0-4.710937 3.824219-8.535156 8.535156-8.535156h494.929688c4.710937 0 8.535156 3.824219 8.535156 8.535156v179.199219c0 4.710937-3.824219 8.53125-8.535156 8.53125zm-486.398438-17.066406h477.867188v-162.132813h-477.867188zm0 0"/><path d="m142.933594 341.332031h-81.066406c-10.589844 0-19.199219-8.609375-19.199219-19.199219v-81.066406c0-10.589844 8.609375-19.199218 19.199219-19.199218h81.074218c10.582032 0 19.199219 8.609374 19.199219 19.199218v81.074219c-.007813 10.582031-8.617187 19.191406-19.207031 19.191406zm-81.066406-102.398437c-1.179688 0-2.132813.957031-2.132813 2.132812v81.074219c0 1.171875.953125 2.125 2.132813 2.125h81.074218c1.179688 0 2.132813-.953125 2.132813-2.132813v-81.066406c0-1.175781-.953125-2.132812-2.132813-2.132812zm0 0"/><path d="m288 341.332031h-81.066406c-10.582032 0-19.199219-8.609375-19.199219-19.199219v-81.066406c0-10.582031 8.609375-19.199218 19.199219-19.199218h81.074218c10.582032 0 19.199219 8.609374 19.199219 19.199218v81.074219c-.007812 10.582031-8.617187 19.191406-19.207031 19.191406zm-81.066406-102.398437c-1.179688 0-2.132813.957031-2.132813 2.132812v81.074219c0 1.179687.953125 2.132813 2.132813 2.132813h81.074218c1.179688 0 2.132813-.953126 2.132813-2.132813v-81.074219c0-1.175781-.953125-2.132812-2.132813-2.132812zm0 0"/><path d="m142.933594 469.332031h-81.066406c-10.589844 0-19.199219-8.609375-19.199219-19.199219v-72.53125c0-10.589843 8.609375-19.203124 19.199219-19.203124h81.074218c10.582032 0 19.199219 8.613281 19.199219 19.203124v72.539063c-.007813 10.582031-8.617187 19.191406-19.207031 19.191406zm-81.066406-93.867187c-1.179688 0-2.132813.957031-2.132813 2.136718v72.539063c0 1.171875.953125 2.125 2.132813 2.125h81.074218c1.179688 0 2.132813-.953125 2.132813-2.132813v-72.53125c0-1.179687-.953125-2.136718-2.132813-2.136718zm0 0"/><path d="m288 469.332031h-81.066406c-10.582032 0-19.199219-8.609375-19.199219-19.199219v-72.53125c0-10.582031 8.609375-19.203124 19.199219-19.203124h81.074218c10.582032 0 19.199219 8.613281 19.199219 19.203124v72.539063c-.007812 10.582031-8.617187 19.191406-19.207031 19.191406zm-81.066406-93.867187c-1.179688 0-2.132813.957031-2.132813 2.136718v72.539063c0 1.179687.953125 2.132813 2.132813 2.132813h81.074218c1.179688 0 2.132813-.953126 2.132813-2.132813v-72.539063c0-1.179687-.953125-2.136718-2.132813-2.136718zm0 0"/><path d="m450.132812 469.332031h-98.132812c-10.582031 0-19.199219-8.609375-19.199219-19.199219v-209.066406c0-10.582031 8.609375-19.199218 19.199219-19.199218h98.132812c10.582032 0 19.199219 8.609374 19.199219 19.199218v209.066406c0 10.589844-8.609375 19.199219-19.199219 19.199219zm-98.132812-230.398437c-1.175781 0-2.132812.957031-2.132812 2.132812v209.066406c0 1.179688.957031 2.132813 2.132812 2.132813h98.132812c1.179688 0 2.132813-.953125 2.132813-2.132813v-209.066406c0-1.175781-.953125-2.132812-2.132813-2.132812zm0 0"/><path d="m426.667969 341.332031h-51.203125c-4.707032 0-8.53125-3.820312-8.53125-8.53125 0-4.710937 3.824218-8.535156 8.53125-8.535156h51.203125c4.710937 0 8.53125 3.824219 8.53125 8.535156 0 4.710938-3.820313 8.53125-8.53125 8.53125zm0 0"/><path d="m119.464844 290.132812h-34.132813c-4.710937 0-8.53125-3.824218-8.53125-8.53125 0-4.710937 3.820313-8.535156 8.53125-8.535156h34.132813c4.710937 0 8.535156 3.824219 8.535156 8.535156 0 4.707032-3.824219 8.53125-8.535156 8.53125zm0 0"/><path d="m119.464844 426.667969h-34.132813c-4.710937 0-8.53125-3.824219-8.53125-8.535157 0-4.710937 3.820313-8.53125 8.53125-8.53125h34.132813c4.710937 0 8.535156 3.820313 8.535156 8.53125 0 4.710938-3.824219 8.535157-8.535156 8.535157zm0 0"/><path d="m426.667969 375.464844h-51.203125c-4.707032 0-8.53125-3.820313-8.53125-8.53125 0-4.710938 3.824218-8.535156 8.53125-8.535156h51.203125c4.710937 0 8.53125 3.824218 8.53125 8.535156 0 4.710937-3.820313 8.53125-8.53125 8.53125zm0 0"/><path d="m102.398438 307.199219c-4.707032 0-8.53125-3.820313-8.53125-8.53125v-34.132813c0-4.710937 3.824218-8.535156 8.53125-8.535156 4.710937 0 8.535156 3.824219 8.535156 8.535156v34.132813c0 4.710937-3.824219 8.53125-8.535156 8.53125zm0 0"/><path d="m230.398438 307.199219c-2.183594 0-4.367188-.835938-6.03125-2.5-3.335938-3.335938-3.335938-8.730469 0-12.066407l34.132812-34.132812c3.335938-3.335938 8.730469-3.335938 12.066406 0 3.335938 3.335938 3.335938 8.730469 0 12.066406l-34.132812 34.132813c-1.664063 1.664062-3.847656 2.5-6.035156 2.5zm0 0"/><path d="m264.535156 307.199219c-2.1875 0-4.371094-.835938-6.035156-2.5l-34.132812-34.132813c-3.335938-3.335937-3.335938-8.730468 0-12.066406 3.335937-3.335938 8.730468-3.335938 12.066406 0l34.132812 34.132812c3.335938 3.335938 3.335938 8.730469 0 12.066407-1.664062 1.664062-3.847656 2.5-6.03125 2.5zm0 0"/><path d="m238.925781 435.199219c-1.621093 0-3.269531-.460938-4.726562-1.433594-3.917969-2.609375-4.976563-7.910156-2.367188-11.835937l17.066407-25.609376c2.613281-3.914062 7.914062-4.988281 11.835937-2.363281 3.917969 2.613281 4.976563 7.910157 2.367187 11.835938l-17.070312 25.609375c-1.636719 2.464844-4.351562 3.796875-7.105469 3.796875zm0 0"/><path d="m503.464844 512h-494.929688c-4.710937 0-8.535156-3.824219-8.535156-8.535156v-315.730469c0-4.710937 3.824219-8.535156 8.535156-8.535156h494.929688c4.710937 0 8.535156 3.824219 8.535156 8.535156v315.730469c0 4.710937-3.824219 8.535156-8.535156 8.535156zm-486.398438-17.066406h477.867188v-298.667969h-477.867188zm0 0"/><path d="m273.066406 102.398438h-51.199218c-4.710938 0-8.535157-3.820313-8.535157-8.53125v-42.667969c0-4.710938 3.824219-8.53125 8.535157-8.53125h51.199218c4.710938 0 8.535156 3.820312 8.535156 8.53125 0 4.710937-3.824218 8.535156-8.535156 8.535156h-42.667968v25.597656h42.667968c4.710938 0 8.535156 3.824219 8.535156 8.535157 0 4.710937-3.824218 8.53125-8.535156 8.53125zm0 0"/><path d="m273.066406 145.066406h-51.199218c-4.710938 0-8.535157-3.824218-8.535157-8.53125v-42.667968c0-4.710938 3.824219-8.535157 8.535157-8.535157h51.199218c4.710938 0 8.535156 3.824219 8.535156 8.535157 0 4.710937-3.824218 8.53125-8.535156 8.53125h-42.667968v25.601562h42.667968c4.710938 0 8.535156 3.824219 8.535156 8.535156 0 4.707032-3.824218 8.53125-8.535156 8.53125zm0 0"/><path d="m409.601562 145.066406c-4.710937 0-8.535156-3.824218-8.535156-8.53125v-85.335937c0-4.710938 3.824219-8.53125 8.535156-8.53125 4.707032 0 8.53125 3.820312 8.53125 8.53125v85.335937c0 4.707032-3.824218 8.53125-8.53125 8.53125zm0 0"/><path d="m435.199219 110.933594h-25.597657c-4.710937 0-8.535156-3.824219-8.535156-8.535156v-51.199219c0-4.710938 3.824219-8.53125 8.535156-8.53125h25.597657c18.824219 0 34.132812 15.308593 34.132812 34.132812s-15.308593 34.132813-34.132812 34.132813zm-17.066407-17.066406h17.066407c9.414062 0 17.066406-7.65625 17.066406-17.066407 0-9.414062-7.652344-17.066406-17.066406-17.066406h-17.066407zm0 0"/><path d="m460.808594 145.066406c-2.59375 0-5.152344-1.175781-6.835938-3.414062l-25.597656-34.132813c-2.835938-3.769531-2.066406-9.121093 1.703125-11.945312 3.78125-2.832031 9.125-2.050781 11.949219 1.707031l25.597656 34.132812c2.835938 3.769532 2.066406 9.121094-1.703125 11.945313-1.539063 1.152344-3.339844 1.707031-5.113281 1.707031zm0 0"/><path d="m315.734375 145.066406c-4.710937 0-8.535156-3.824218-8.535156-8.53125v-85.335937c0-4.710938 3.824219-8.53125 8.535156-8.53125s8.53125 3.820312 8.53125 8.53125v85.335937c0 4.707032-3.820313 8.53125-8.53125 8.53125zm0 0"/><path d="m341.332031 110.933594h-25.597656c-4.710937 0-8.535156-3.824219-8.535156-8.535156v-51.199219c0-4.710938 3.824219-8.53125 8.535156-8.53125h25.597656c18.824219 0 34.132813 15.308593 34.132813 34.132812s-15.308594 34.132813-34.132813 34.132813zm-17.066406-17.066406h17.066406c9.414063 0 17.066407-7.65625 17.066407-17.066407 0-9.414062-7.652344-17.066406-17.066407-17.066406h-17.066406zm0 0"/><path d="m366.941406 145.066406c-2.59375 0-5.152344-1.175781-6.835937-3.414062l-25.597657-34.132813c-2.835937-3.769531-2.066406-9.121093 1.707032-11.945312 3.777344-2.832031 9.121094-2.050781 11.945312 1.707031l25.601563 34.132812c2.832031 3.769532 2.0625 9.121094-1.707031 11.945313-1.539063 1.152344-3.335938 1.707031-5.113282 1.707031zm0 0"/></g></svg>